<svg id="Calque_2" data-name="Calque 2" xmlns="http://www.w3.org/2000/svg" width="117.968" height="68.572" viewBox="0 0 117.968 68.572">
  <g id="Calque_1" data-name="Calque 1">
    <path id="Tracé_16" data-name="Tracé 16" d="M2.47.006A2.485,2.485,0,0,0,.723.724,2.448,2.448,0,0,0,.194,1.5a2.414,2.414,0,0,0,0,1.9,2.429,2.429,0,0,0,.53.773,2.471,2.471,0,0,0,1.747.707,2.485,2.485,0,0,0,1.745-.72,2.448,2.448,0,0,0,.528-.776A2.409,2.409,0,0,0,4.216.714,2.469,2.469,0,0,0,2.47.006Z" transform="translate(39.72 53.762)" fill="#b4b4b4"/>
    <path id="Tracé_17" data-name="Tracé 17" d="M117.968,34.282,98.485,14.952l-14.414-.036h-.147v-9.7a4.809,4.809,0,0,0-.384-1.888,4.916,4.916,0,0,0-4.5-2.981L24.878.109a5,5,0,0,0-1.931.376,4.948,4.948,0,0,0-1.577,1.04,4.863,4.863,0,0,0-1.064,1.549,4.793,4.793,0,0,0-.39,1.9L2.493,4.909a2.52,2.52,0,0,0-.97.189,2.488,2.488,0,0,0-.792.521A2.437,2.437,0,0,0,.2,6.395,2.413,2.413,0,0,0,.2,8.3a2.46,2.46,0,0,0,.534.78A2.517,2.517,0,0,0,2.493,9.8l17.423.055V19.63l-12.44-.023a2.518,2.518,0,0,0-.969.19,2.491,2.491,0,0,0-.791.523,2.442,2.442,0,0,0-.534.776,2.413,2.413,0,0,0,0,1.9,2.452,2.452,0,0,0,.534.778,2.508,2.508,0,0,0,1.76.719l12.435.016v9.774H12.457A2.5,2.5,0,0,0,10.7,35a2.447,2.447,0,0,0-.533.777,2.413,2.413,0,0,0,0,1.9,2.444,2.444,0,0,0,.533.777,2.5,2.5,0,0,0,1.758.715l7.455,0v9.769l-2.484,0a2.5,2.5,0,0,0-1.758.719,2.454,2.454,0,0,0-.533.778,2.415,2.415,0,0,0,0,1.9,2.439,2.439,0,0,0,.533.776,2.484,2.484,0,0,0,.79.522,2.51,2.51,0,0,0,.967.19l2.484-.006a4.819,4.819,0,0,0,.833,2.709,4.9,4.9,0,0,0,1.376,1.351,4.987,4.987,0,0,0,1.781.72,5.027,5.027,0,0,0,.972.091l5.206-.016a12.026,12.026,0,0,0,1.564,3.916,12.189,12.189,0,0,0,2.734,3.077,12.391,12.391,0,0,0,7.815,2.714,12.453,12.453,0,0,0,7.8-2.777,12.289,12.289,0,0,0,2.721-3.091A12.1,12.1,0,0,0,54.266,58.6l32.352-.1a12.011,12.011,0,0,0,4.235,6.942,12.188,12.188,0,0,0,19.6-7.017l7.464-.023ZM42.19,63.509a7.412,7.412,0,0,1-5.24-2.122,7.286,7.286,0,0,1-1.59-2.319,7.241,7.241,0,0,1,0-5.693,7.343,7.343,0,0,1,1.59-2.328,7.459,7.459,0,0,1,10.473-.023,7.286,7.286,0,0,1,1.585,2.317,7.241,7.241,0,0,1,0,5.683,7.343,7.343,0,0,1-1.585,2.326,7.454,7.454,0,0,1-5.233,2.158Zm36.852-9.834-24.777.062a12.025,12.025,0,0,0-1.554-3.906,12.188,12.188,0,0,0-2.721-3.075,12.389,12.389,0,0,0-7.8-2.733,12.454,12.454,0,0,0-7.815,2.758,12.291,12.291,0,0,0-2.734,3.093A12.1,12.1,0,0,0,30.079,53.8l-5.206.013V4.993l54.164.2ZM98.56,63.3a7.274,7.274,0,0,1-6.731-4.409,7.237,7.237,0,0,1,0-5.652,7.309,7.309,0,0,1,13.45-.033,7.237,7.237,0,0,1,0,5.644,7.323,7.323,0,0,1-6.725,4.45Zm14.533-9.707-2.639.007a12.011,12.011,0,0,0-4.214-6.931,12.188,12.188,0,0,0-19.623,6.991l-2.7.007V19.751h.14l12.411.023,16.647,16.5Z" fill="#b4b4b4"/>
    <path id="Tracé_18" data-name="Tracé 18" d="M2.434.006A2.443,2.443,0,0,0,.191,1.49,2.4,2.4,0,0,0,.714,4.141a2.444,2.444,0,0,0,3.963-.783A2.4,2.4,0,0,0,4.155.709a2.424,2.424,0,0,0-1.72-.7Z" transform="translate(96.119 53.621)" fill="#b4b4b4"/>
  </g>
</svg>
