<svg xmlns="http://www.w3.org/2000/svg" width="85.835" height="50.813" viewBox="0 0 85.835 50.813">
  <g id="Calque_2" data-name="Calque 2" transform="translate(0)">
    <g id="Calque_1" data-name="Calque 1" transform="translate(0)">
      <path id="Tracé_36" data-name="Tracé 36" d="M85.835,25.407A25.407,25.407,0,0,0,60.429,0a25.151,25.151,0,0,0-16,5.7A27.378,27.378,0,0,1,51.677,17.52H49.566A25.334,25.334,0,0,0,42.9,7.017,25.418,25.418,0,0,0,36.274,17.51H34.163A27.417,27.417,0,0,1,41.34,5.724,25.372,25.372,0,1,0,25.407,50.813,25.224,25.224,0,0,0,41.34,45.092a27.414,27.414,0,0,1-7.178-11.786h2.111A25.418,25.418,0,0,0,42.9,43.794a25.332,25.332,0,0,0,6.667-10.5h2.111a27.386,27.386,0,0,1-7.253,11.818,25.381,25.381,0,0,0,41.411-19.7Z" fill="#7c7c7c" fill-rule="evenodd"/>
      <path id="Tracé_37" data-name="Tracé 37" d="M123.344,528.149l1.754-9.4h2.218l.232.926a3.085,3.085,0,0,1,2.448-.926L129.3,521.2c-.63,0-1.821-.165-2.582,2.648l-.795,4.3Zm-33.995-11.79h2.556l-.525,2.491h1.376l-.458,2.033H90.988l-.721,3.8c-.131.721-.066,1.378,1.409,1.148l-.164,1.9a3.627,3.627,0,0,1-1.9.459c-.59,0-2.523-.362-2.031-2.917Zm11.079,7.6c.295-1.508.984-5.243-3.506-5.243-4.13,0-4.654,4.1-4.752,4.686s-.165,4.754,4.259,4.754a8.712,8.712,0,0,0,3.276-.427l.393-1.933a18.616,18.616,0,0,1-2.885.229c-1.016,0-2.654.066-2.36-2.065Zm-13.5-3.015.59-1.9a6.1,6.1,0,0,0-2.523-.36c-.36,0-3.429-.038-3.9,2.229-.36,1.737.275,2.456.885,2.72.984.426,1.541.819,2.065,1.082a.742.742,0,0,1-.328,1.409,10.1,10.1,0,0,1-3.375-.23l-.36,1.933a10.33,10.33,0,0,0,3.014.33c.622,0,3.67.164,4.1-2.655a2.046,2.046,0,0,0-.885-2.293,14.361,14.361,0,0,0-1.835-1.017c-.524-.23-.918-1.115.033-1.378a8.352,8.352,0,0,1,2.523.131Zm-16.583,7.211,2.13-11.339H68.278L65.164,523.7l-.492-6.883h-4.1l-2.2,11.341h2.556l1.572-8.194.689,8.194h2.425l3.572-8-1.508,8Zm2.817-9.143-.393,2.033a28.011,28.011,0,0,1,3.179-.3c.885.032,1.868-.1,1.573,1.311-.655.066-5.243-.655-5.964,3.276a2.485,2.485,0,0,0,2.687,2.852,3.3,3.3,0,0,0,2.13-.561l.328.525h2.392l1.017-5.112c.264-1.278.688-4.359-3.6-4.359a17.464,17.464,0,0,0-3.343.328Zm41.425.425a3.255,3.255,0,0,0-1.967-.459A3.519,3.519,0,0,0,109.5,522.1c-.426,2.72,1.441,4.063,4.064,3.179l.753,2.294a6.839,6.839,0,0,1-3.113.59c-2.655,0-5.539-2.359-4.228-7.144a6.161,6.161,0,0,1,5.769-4.752,4.241,4.241,0,0,1,3.507,1.506l-1.672,1.671Zm21.794.393c-.493-.36-.786-1.114-2-1.114-1.409,0-3.6-.263-4.85,4-.833,2.846.852,5.44,2.686,5.44a4.493,4.493,0,0,0,2.228-.753l.329.753h2.752l2.229-11.928h-2.688l-.687,3.6Zm-19.958-.819-.394,2.033a28.009,28.009,0,0,1,3.179-.3c.885.032,1.869-.1,1.573,1.311-.656.066-5.243-.655-5.964,3.276a2.485,2.485,0,0,0,2.686,2.852,3.314,3.314,0,0,0,2.131-.558l.328.525h2.391l1.017-5.112c.264-1.278.688-4.359-3.606-4.359a17.453,17.453,0,0,0-3.342.328Z" transform="translate(-56.182 -496.791)" fill="#fff" fill-rule="evenodd"/>
      <path id="Tracé_38" data-name="Tracé 38" d="M498.379,632.764h3.179c.164-.918-.131-1.7-1.147-1.7A1.968,1.968,0,0,0,498.379,632.764Zm-17.924,1.7a2.851,2.851,0,0,0-2.2.229c-.819.557-1.048,1.539-.2,1.868a1.744,1.744,0,0,0,2.2-1.083Zm58.367-.3a3.1,3.1,0,0,0-.164-2.293c-.786-1.048-2.595-.22-3.146,1.835-.36,1.343.426,2.359,1.311,2.359C537.773,636.075,538.363,635.321,538.822,634.173Zm-15.108.3a2.849,2.849,0,0,0-2.2.229c-.819.557-1.049,1.539-.2,1.868a1.742,1.742,0,0,0,2.195-1.083Z" transform="translate(-459.541 -607.297)" fill="#7c7c7c" fill-rule="evenodd"/>
      <path id="Tracé_39" data-name="Tracé 39" d="M1176.92,595.157l1.737-9.307h2.2l.229.918a3.057,3.057,0,0,1,2.425-.918l-.656,2.458c-.622,0-1.836-.2-2.589,2.588l-.786,4.261Z" transform="translate(-1132.602 -563.789)" fill="#fff" fill-rule="evenodd"/>
    </g>
  </g>
</svg>