<svg id="Calque_2" data-name="Calque 2" xmlns="http://www.w3.org/2000/svg" width="69.76" height="91.115" viewBox="0 0 69.76 91.115">
  <g id="Calque_1" data-name="Calque 1" transform="translate(0)">
    <path id="Tracé_21" data-name="Tracé 21" d="M3.667,34.114A117.14,117.14,0,0,0,4.84,49.686L5.1,51.4l-3.667.481-.257-1.717A122.731,122.731,0,0,1,0,32.758V31.367l1.448-.292C16.335,28.037,27.5,20.19,33.111,4.721L34.834,0l1.833,4.721C41.6,18.182,51.334,27.71,68.311,31.075l1.448.292v1.373c0,54.94-34.833,58.374-34.833,58.374S15.62,89.4,6.142,67.731l-.7-1.6,3.392-1.3.7,1.6c4.748,11.074,12.925,18.491,25.3,21.221C54.854,82.788,65.762,62.8,66,34.132,50.271,30.612,40.462,22.113,34.834,10.1,28.527,23.59,17.711,30.9,3.667,34.114Zm-1.1,23.04c.293,1.2.605,2.369.935,3.52l.477,1.717,3.538-.91L7.04,59.764c-.33-1.082-.623-2.2-.9-3.434l-.385-1.717-3.667.755ZM30.2,56.228,50.546,38.9l2.475,2.541L30.306,60.777,16.665,50.133l2.365-2.627Z" transform="translate(0.001)" fill="#b4b4b4" fill-rule="evenodd"/>
  </g>
</svg>