<svg id="Calque_1" data-name="Calque 1" xmlns="http://www.w3.org/2000/svg" width="74.781" height="74.781" viewBox="0 0 74.781 74.781">
  <path id="Tracé_19" data-name="Tracé 19" d="M37.391,0A37.391,37.391,0,1,0,74.781,37.391,37.391,37.391,0,0,0,37.391,0Zm0,69.586a32.2,32.2,0,1,1,32.2-32.2A32.2,32.2,0,0,1,37.391,69.586Z" fill="#b4b4b4"/>
  <path id="Tracé_20" data-name="Tracé 20" d="M44.122,26.874A11.3,11.3,0,0,1,51.915,30.1a2.617,2.617,0,1,0,3.621-3.778A16.318,16.318,0,0,0,44.2,21.6c-7.478,0-13.854,5.274-16.452,12.752H23.5a2.6,2.6,0,0,0,0,5.2h3.07a22.238,22.238,0,0,0-.157,2.283c0,.787.079,1.574.157,2.362H23.5a2.6,2.6,0,0,0,0,5.2H27.67c2.6,7.478,8.974,12.752,16.452,12.752a16.436,16.436,0,0,0,11.335-4.644,2.617,2.617,0,0,0-3.621-3.778,11.123,11.123,0,0,1-7.714,3.227c-4.644,0-8.659-3.07-10.784-7.557h13.7a2.6,2.6,0,1,0,0-5.2H31.763a22.291,22.291,0,0,1-.157-2.362,20.8,20.8,0,0,1,.157-2.283H47.034a2.6,2.6,0,1,0,0-5.2H33.259C35.463,29.944,39.477,26.874,44.122,26.874Z" transform="translate(-4.448 -4.597)" fill="#b4b4b4"/>
</svg>