<svg id="Calque_2" data-name="Calque 2" xmlns="http://www.w3.org/2000/svg" width="158.557" height="42" viewBox="0 0 158.557 42">
  <g id="svg3070" transform="translate(0)">
    <g id="layer1">
      <g id="g3019">
        <path id="path16" d="M0,41.415H17.417V35.7H6.3V13.88H0Z" transform="translate(0 -6.234)" fill="#939393" fill-rule="evenodd"/>
        <path id="path18" d="M42.195,40.948V21.983H35.888V40.948ZM39.044,19.395a3.287,3.287,0,1,0,.05-6.555,3.291,3.291,0,0,0-3.564,3.277,3.239,3.239,0,0,0,3.481,3.277Z" transform="translate(-15.96 -5.767)" fill="#939393" fill-rule="evenodd"/>
        <path id="path20" d="M52.94,48.037h6.307V37.445a4.335,4.335,0,0,1,.2-1.537A3.448,3.448,0,0,1,62.684,33.6c2.286,0,3.195,1.741,3.195,4.291V48.037h6.307V37.164c0-5.828-3.112-8.538-7.26-8.538A6.285,6.285,0,0,0,59.2,31.821h.044V29.067H52.94c.083,1.779,0,18.964,0,18.964Z" transform="translate(-23.78 -12.856)" fill="#939393" fill-rule="evenodd"/>
        <path id="path22" d="M98.866,13.88h-6.3V41.421h6.3V35.268l1.575-1.983,4.957,8.13h7.755l-8.306-11.771,7.238-7.987h-7.568s-5.183,7.161-5.651,7.992Z" transform="translate(-41.581 -6.234)" fill="#939393" fill-rule="evenodd"/>
        <path id="path24" d="M144.965,39.43a15.42,15.42,0,0,0,.209-2.479c0-4.9-2.49-9.882-9.044-9.882-7.006,0-10.24,5.547-10.24,10.57,0,6.219,3.938,10.1,10.823,10.1a19.6,19.6,0,0,0,7.337-1.25l-.826-4.164a17.218,17.218,0,0,1-5.6.843c-2.947,0-5.508-1.206-5.723-3.784l13.06.039Zm-13.1-4.269c.165-1.614,1.245-4,3.938-4,2.864,0,3.525,2.55,3.525,4Z" transform="translate(-56.548 -12.159)" fill="#939393" fill-rule="evenodd"/>
        <path id="path26" d="M177.308,13.88v9.535h-.077c-.909-1.338-2.82-2.2-5.348-2.2-4.853,0-9.121,3.883-9.083,10.515,0,6.153,3.856,10.157,8.67,10.157a7.152,7.152,0,0,0,6.345-3.3h.121l.253,2.875h5.6c-.083-1.338-.165-3.641-.165-5.9V13.88Zm0,18.755a7.162,7.162,0,0,1-.121,1.377,3.712,3.712,0,0,1-3.69,2.952c-2.611,0-4.313-2.1-4.313-5.42,0-3.118,1.449-5.624,4.351-5.624a3.718,3.718,0,0,1,3.69,2.991,5.277,5.277,0,0,1,.083,1.135v2.589Z" transform="translate(-73.127 -6.234)" fill="#939393" fill-rule="evenodd"/>
        <path id="Tracé_27" data-name="Tracé 27" d="M252.809,34.336V34.27l-.039.066Z" transform="translate(-113.541 -15.393)" fill="#939393"/>
        <path id="Tracé_28" data-name="Tracé 28" d="M250.751,0H215.185A3.046,3.046,0,0,0,212.1,3.007V38.992A3.046,3.046,0,0,0,215.185,42h35.566a3.046,3.046,0,0,0,3.079-3.007V3.007A3.046,3.046,0,0,0,250.751,0Zm-26,35.158h-6.307V16.194h6.307ZM221.6,13.6h-.039a3.268,3.268,0,0,1-3.487-3.277A3.315,3.315,0,0,1,221.64,7.05a3.277,3.277,0,0,1,3.525,3.277C225.209,12.189,223.794,13.6,221.6,13.6Zm25.888,21.553h-6.307V25.012c0-2.55-.914-4.291-3.195-4.291a3.443,3.443,0,0,0-3.233,2.308,4.324,4.324,0,0,0-.209,1.537V35.158h-6.3s.083-17.185,0-18.964h6.3v2.682a6.263,6.263,0,0,1,5.679-3.129c4.148,0,7.26,2.71,7.26,8.538Z" transform="translate(-95.273 0)" fill="#939393"/>
      </g>
    </g>
  </g>
</svg>