<svg id="Calque_2" data-name="Calque 2" xmlns="http://www.w3.org/2000/svg" width="48.219" height="52.238" viewBox="0 0 48.219 52.238">
  <g id="svg3355">
    <path id="path8681" d="M48.219,0H0V52.238H48.219Z" fill="#7c7c7c"/>
    <path id="path8683" d="M53.264,40.177H7.46V7.46h45.8Z" transform="translate(-6.253 -6.253)" fill="#fff"/>
    <path id="path8685" d="M85.518,44.16,76.53,65.614H70.658L66.236,48.488A2.363,2.363,0,0,0,64.92,46.6a23.615,23.615,0,0,0-5.48-1.82l.131-.618h9.443a2.586,2.586,0,0,1,2.56,2.181l2.34,12.415,5.775-14.6h5.825" transform="translate(-49.822 -37.015)" fill="#7c7c7c"/>
    <path id="path8687" d="M77.39,236.332a3.344,3.344,0,0,0,.853.078c1.3,0,2.1-.67,2.1-1.838,0-1.108-.736-1.7-1.942-1.7a4.55,4.55,0,0,0-1.006.092Zm-1.73-4.644a14.414,14.414,0,0,1,2.67-.207,4.212,4.212,0,0,1,2.82.809,2.864,2.864,0,0,1,.937,2.205,3.106,3.106,0,0,1-.825,2.265,4.11,4.11,0,0,1-3.019,1.063,4.979,4.979,0,0,1-.853-.06v3.76H75.66Z" transform="translate(-63.418 -194.024)" fill="#fff"/>
    <path id="path8689" d="M128.2,237.712l-.751-2.456c-.186-.607-.34-1.294-.485-1.866h-.029c-.139.578-.283,1.277-.451,1.866l-.736,2.456Zm-2.736,1.374-.824,2.828H122.83l3.063-9.974h2.228l3.107,9.974h-1.872l-.867-2.828Z" transform="translate(-102.955 -194.41)" fill="#fff"/>
    <path id="path8691" d="M181.789,241.914v-4.16l-3.019-5.814h1.979l1.15,2.558c.324.743.565,1.294.825,1.985h.024c.243-.639.516-1.259.838-1.985l1.15-2.558h1.972l-3.178,5.772v4.207Z" transform="translate(-149.844 -194.41)" fill="#fff"/>
  </g>
</svg>