<svg xmlns="http://www.w3.org/2000/svg" width="85.835" height="75.646" viewBox="0 0 85.835 75.646">
  <g id="Calque_2" data-name="Calque 2" transform="translate(0)">
    <g id="Calque_1" data-name="Calque 1" transform="translate(0)">
      <path id="Tracé_22" data-name="Tracé 22" d="M63.708,33.362C63.708,17.711,51.823,5,37.167,5S10.75,17.711,10.75,33.362,22.619,61.74,37.167,61.74,63.708,49.014,63.708,33.362Zm-26.54-25.3c9.8,0,18.209,6.555,21.685,15.82A67.383,67.383,0,0,1,53.11,19.1l-.8-.812-1.011.536a32.666,32.666,0,0,1-14.135,2.833,32.773,32.773,0,0,1-14.089-2.879l-1-.536-.812.812a67.384,67.384,0,0,1-5.743,4.778C19.02,14.6,27.427,8.063,37.167,8.063Zm-23.355,25.3a27.566,27.566,0,0,1,.383-4.671c1.531-1.149,5.973-4.457,8.438-6.692a37.628,37.628,0,0,0,14.533,2.726A37.7,37.7,0,0,0,51.732,22c2.45,2.236,6.876,5.544,8.423,6.692a26.035,26.035,0,0,1,.429,4.671c0,13.967-10.506,25.315-23.416,25.315S13.813,47.329,13.813,33.362Z" transform="translate(5.691 2.657)" fill="#b4b4b4"/>
      <path id="Tracé_23" data-name="Tracé 23" d="M84.85,29.71A8.086,8.086,0,0,0,80.1,24.7a8.331,8.331,0,0,0-5.8.337C70.148,10.368,57.85,0,42.873,0S15.7,10.368,11.57,25.039A8.377,8.377,0,0,0,5.75,24.7,8.163,8.163,0,0,0,1,29.71,18.714,18.714,0,0,0,3.254,46.234a9.189,9.189,0,0,0,7.458,3.875H11.83l1.363-.168V36.158C13.132,17.535,26.211,3.063,42.873,3.063S72.736,17.535,72.736,36.02V48.271c-.628,1.868-6.218,16.984-22.359,20.644a4.4,4.4,0,0,0-3.691-2.052h-7.5a4.4,4.4,0,1,0,0,8.775h7.5A4.38,4.38,0,0,0,51,71.978c16.157-3.691,22.727-17.765,24.319-21.884A9.1,9.1,0,0,0,82.6,46.234,18.607,18.607,0,0,0,84.85,29.71ZM10.069,47.015a6.126,6.126,0,0,1-4.365-2.6A15.437,15.437,0,0,1,3.851,30.889a5.238,5.238,0,0,1,2.894-3.323,5.666,5.666,0,0,1,4.1.475,39.818,39.818,0,0,0-.781,7.948Zm29.1,25.575a1.332,1.332,0,1,1,0-2.649h7.5a1.332,1.332,0,0,1,0,2.649Zm41-28.179a6.126,6.126,0,0,1-4.365,2.6v-11a40.906,40.906,0,0,0-.766-7.948,5.666,5.666,0,0,1,4.089-.505,5.283,5.283,0,0,1,2.894,3.262A15.483,15.483,0,0,1,80.164,44.412Z" transform="translate(-0.015)" fill="#b4b4b4"/>
    </g>
  </g>
</svg>
