<svg id="maestro" xmlns="http://www.w3.org/2000/svg" width="82.138" height="52.701" viewBox="0 0 82.138 52.701">
  <path id="Tracé_40" data-name="Tracé 40" d="M77.756,0H4.378A4.429,4.429,0,0,0,0,4.476V48.225A4.428,4.428,0,0,0,4.378,52.7H77.756a4.429,4.429,0,0,0,4.38-4.476V4.476A4.429,4.429,0,0,0,77.756,0ZM54.706,49.114a21.933,21.933,0,0,1-13.655-4.766A21.931,21.931,0,0,1,27.4,49.114,22.607,22.607,0,0,1,5.054,26.3,22.605,22.605,0,0,1,27.4,3.49,21.949,21.949,0,0,1,41.051,8.257,21.952,21.952,0,0,1,54.706,3.49,22.606,22.606,0,0,1,77.052,26.3,22.608,22.608,0,0,1,54.706,49.114Z" transform="translate(0.002 0)" fill="#7c7c7c"/>
  <path id="Tracé_41" data-name="Tracé 41" d="M350.513,236.972c0-.181.265-1.435-1.118-1.464-.764,0-1.314.522-1.537,1.464Z" transform="translate(-311.155 -210.66)" fill="#7c7c7c"/>
  <path id="Tracé_42" data-name="Tracé 42" d="M268.876,262.317a4.136,4.136,0,0,0-.541-.037c-1.372,0-2.064.414-2.064,1.238a.794.794,0,0,0,.867.841A1.876,1.876,0,0,0,268.876,262.317Z" transform="translate(-238.177 -234.608)" fill="#7c7c7c"/>
  <path id="Tracé_43" data-name="Tracé 43" d="M594.534,236.34c-1.211,0-1.966,1.465-1.966,2.761,0,1.095.513,1.824,1.368,1.812,1.171,0,1.912-1.1,1.912-2.939C595.848,237.135,595.513,236.34,594.534,236.34Z" transform="translate(-530.047 -211.404)" fill="#7c7c7c"/>
  <path id="Tracé_44" data-name="Tracé 44" d="M114.54,52.445a19.991,19.991,0,0,0-12.1,4.074,22.929,22.929,0,0,1,6.646,11.943h-2.048a20.829,20.829,0,0,0-6.153-10.641,20.85,20.85,0,0,0-6.151,10.641H92.688a22.93,22.93,0,0,1,6.644-11.943,19.981,19.981,0,0,0-12.1-4.074,20.774,20.774,0,0,0,0,41.539,19.984,19.984,0,0,0,12.1-4.075A22.942,22.942,0,0,1,93.119,79.7h2.093a20.866,20.866,0,0,0,5.674,8.911,20.814,20.814,0,0,0,5.676-8.911h2.093a22.9,22.9,0,0,1-6.214,10.212,19.993,19.993,0,0,0,12.1,4.075,20.774,20.774,0,0,0,0-41.539ZM81.633,78.272l1.43-7.694L79.77,78.272H77.576l-.4-7.647-1.434,7.647H73.559l1.86-10.007h3.758l.2,6.193,2.646-6.193h3.912l-1.9,10.007Zm11.381-4.359c-.083.535-.657,3.625-.718,4.359H90.285l.049-.861A3.2,3.2,0,0,1,87.8,78.4a2.119,2.119,0,0,1-2.21-2.23c0-2,1.563-3.154,4.247-3.154a8.815,8.815,0,0,1,.987.059,1.836,1.836,0,0,0,.094-.53c0-.548-.42-.749-1.553-.749a9.087,9.087,0,0,0-2.559.365l.343-1.835a10.853,10.853,0,0,1,2.887-.431c2.078,0,3.178.829,3.178,2.394A9.5,9.5,0,0,1,93.014,73.913Zm8.064.958H96.29c-.173,1.169.664,1.683,2.089,1.683a6.23,6.23,0,0,0,2.477-.508l-.375,2.034a9.565,9.565,0,0,1-2.471.323c-2.691,0-4.1-1.253-4.1-3.651,0-2.8,1.785-4.853,4.212-4.853,1.981,0,3.248,1.156,3.248,2.961A7.827,7.827,0,0,1,101.078,74.871Zm7.028-2.913a15.2,15.2,0,0,0-1.762-.124c-.794,0-1.2.226-1.2.671,0,.378.118.473,1.143.889a2.249,2.249,0,0,1,1.726,2.277c0,1.868-1.191,2.733-3.774,2.733a13.341,13.341,0,0,1-2.551-.241l.351-1.881a7.81,7.81,0,0,0,2.18.319c.973,0,1.408-.228,1.408-.745,0-.371-.156-.49-1.145-.906-1.3-.528-1.867-1.245-1.867-2.279-.008-1.513.941-2.771,3.683-2.771a19.409,19.409,0,0,1,2.157.159l-.348,1.9Zm5.194.123h-1.234s-.677,3.467-.677,3.731c0,.424.25.606.821.606a2,2,0,0,0,.652-.082h0l-.321,1.808a6.082,6.082,0,0,1-1.727.26,1.668,1.668,0,0,1-1.905-1.786,17.33,17.33,0,0,1,.33-2.17c.067-.407,1.137-6.318,1.137-6.318h2.392l-.366,1.955h1.227Zm2.949,6.192h-2.418l.1-.556c.419-2.534.96-5.1,1.263-7.635h2.244a5.789,5.789,0,0,1-.161,1.242c.741-.965,1.562-1.649,2.833-1.171,0,0-.785,2.054-.879,2.317-1.825-.493-2.115.9-2.985,5.8Zm7.271.132a3.418,3.418,0,0,1-3.781-3.715,4.469,4.469,0,0,1,4.689-4.789,3.475,3.475,0,0,1,3.789,3.635C128.217,76.924,126.245,78.4,123.521,78.4Z" transform="translate(-59.832 -46.912)" fill="#7c7c7c"/>
</svg>